<svg id="Layer_1" data-name="Layer 1" xmlns="http://www.w3.org/2000/svg" xmlns:xlink="http://www.w3.org/1999/xlink" viewBox="0 0 1080 1080"><defs><style>.cls-1{fill:#97f9e3;}.cls-2{fill:#067254;}.cls-3{fill:url(#Безымянный_градиент_13);}.cls-4{fill:url(#Безымянный_градиент_13-2);}.cls-5{fill:url(#Безымянный_градиент_13-3);}.cls-6{fill:url(#Безымянный_градиент_13-4);}.cls-7{fill:url(#Безымянный_градиент_13-5);}.cls-8{fill:url(#Безымянный_градиент_13-6);}.cls-9{fill:url(#Безымянный_градиент_13-7);}.cls-10{fill:url(#Безымянный_градиент_13-8);}.cls-11{fill:url(#Безымянный_градиент_13-9);}.cls-12{fill:url(#Безымянный_градиент_13-10);}.cls-13{fill:url(#Безымянный_градиент_13-11);}.cls-14{fill:url(#Безымянный_градиент_13-12);}.cls-15{fill:url(#Безымянный_градиент_13-13);}.cls-16{fill:url(#Безымянный_градиент_13-14);}.cls-17{fill:url(#Безымянный_градиент_13-15);}.cls-18{fill:url(#Безымянный_градиент_13-16);}.cls-19{fill:url(#Безымянный_градиент_13-17);}.cls-20{fill:url(#Безымянный_градиент_13-18);}.cls-21{fill:url(#Безымянный_градиент_13-19);}.cls-22{fill:url(#Безымянный_градиент_13-20);}.cls-23{fill:url(#Безымянный_градиент_13-21);}.cls-24{fill:url(#Безымянный_градиент_13-22);}.cls-25{fill:url(#Безымянный_градиент_13-23);}.cls-26{fill:url(#Безымянный_градиент_13-24);}.cls-27{fill:url(#Безымянный_градиент_13-25);}.cls-28{fill:url(#Безымянный_градиент_13-26);}.cls-29{fill:url(#Безымянный_градиент_13-27);}.cls-30{fill:url(#Безымянный_градиент_13-28);}.cls-31{fill:url(#Безымянный_градиент_13-29);}.cls-32{fill:url(#Безымянный_градиент_13-30);}.cls-33{fill:url(#Безымянный_градиент_13-31);}.cls-34{fill:url(#Безымянный_градиент_13-32);}.cls-35{fill:url(#Безымянный_градиент_13-33);}.cls-36{fill:url(#Безымянный_градиент_13-34);}.cls-37{fill:url(#Безымянный_градиент_13-35);}.cls-38{fill:url(#Безымянный_градиент_13-36);}.cls-39{fill:url(#Безымянный_градиент_13-37);}.cls-40{fill:url(#Безымянный_градиент_13-38);}.cls-41{fill:url(#Безымянный_градиент_13-39);}.cls-42{fill:url(#Безымянный_градиент_13-40);}.cls-43{fill:url(#Безымянный_градиент_13-41);}.cls-44{fill:url(#Безымянный_градиент_13-42);}.cls-45{fill:url(#Безымянный_градиент_13-43);}.cls-46{fill:url(#Безымянный_градиент_13-44);}.cls-47{fill:url(#Безымянный_градиент_13-45);}.cls-48{fill:url(#Безымянный_градиент_13-46);}.cls-49{fill:url(#Безымянный_градиент_13-47);}.cls-50{fill:url(#Безымянный_градиент_13-48);}.cls-51{fill:url(#Безымянный_градиент_13-49);}.cls-52{fill:url(#Безымянный_градиент_13-50);}.cls-53{fill:#679b40;}.cls-54{fill:#e65924;}.cls-55{fill:#45391d;}.cls-56{fill:#01483f;}.cls-57{fill:#070707;}.cls-58{fill:#fd9c28;}.cls-59{fill:#f5c99d;}.cls-60{fill:#d8a982;}.cls-61{fill:#97c157;}.cls-62{fill:#847d3d;}.cls-63{fill:#fff;}.cls-64{fill:url(#Безымянный_градиент_6);}.cls-65{fill:#4ac195;}.cls-66{fill:url(#Безымянный_градиент_13-51);}.cls-67{fill:#bda24d;}.cls-68{fill:#e8f2fa;}.cls-69{fill:url(#Безымянный_градиент_6-2);}.cls-70{fill:#002822;}.cls-71{opacity:0.5;}.cls-72{fill:url(#Безымянный_градиент_4);}.cls-73{fill:#c9fce9;}.cls-74{fill:#eaf7f9;}.cls-75{fill:#ffae73;}.cls-76{fill:url(#Безымянный_градиент_4-2);}</style><linearGradient id="Безымянный_градиент_13" x1="92.42" y1="735.6" x2="118.16" y2="735.6" gradientUnits="userSpaceOnUse"><stop offset="0" stop-color="#3e815b"/><stop offset="1" stop-color="#277455"/></linearGradient><linearGradient id="Безымянный_градиент_13-2" x1="80.92" y1="863.32" x2="129.5" y2="863.32" xlink:href="#Безымянный_градиент_13"/><linearGradient id="Безымянный_градиент_13-3" x1="76.34" y1="934.69" x2="100.47" y2="934.69" xlink:href="#Безымянный_градиент_13"/><linearGradient id="Безымянный_градиент_13-4" x1="109.87" y1="934.69" x2="134" y2="934.69" xlink:href="#Безымянный_градиент_13"/><linearGradient id="Безымянный_градиент_13-5" x1="35.82" y1="799.46" x2="178.2" y2="799.46" xlink:href="#Безымянный_градиент_13"/><linearGradient id="Безымянный_градиент_13-6" x1="44.24" y1="722.82" x2="169.78" y2="722.82" xlink:href="#Безымянный_градиент_13"/><linearGradient id="Безымянный_градиент_13-7" x1="57.47" y1="649.66" x2="156.56" y2="649.66" xlink:href="#Безымянный_градиент_13"/><linearGradient id="Безымянный_градиент_13-8" x1="96.8" y1="622.59" x2="114.83" y2="622.59" xlink:href="#Безымянный_градиент_13"/><linearGradient id="Безымянный_градиент_13-9" x1="92.42" y1="671.73" x2="118.16" y2="671.73" xlink:href="#Безымянный_градиент_13"/><linearGradient id="Безымянный_градиент_13-10" x1="92.42" y1="697.28" x2="118.16" y2="697.28" xlink:href="#Безымянный_градиент_13"/><linearGradient id="Безымянный_градиент_13-11" x1="92.42" y1="722.82" x2="118.16" y2="722.82" xlink:href="#Безымянный_градиент_13"/><linearGradient id="Безымянный_градиент_13-12" x1="92.42" y1="748.37" x2="118.16" y2="748.37" xlink:href="#Безымянный_градиент_13"/><linearGradient id="Безымянный_градиент_13-13" x1="92.42" y1="773.91" x2="118.16" y2="773.91" xlink:href="#Безымянный_градиент_13"/><linearGradient id="Безымянный_градиент_13-14" x1="89.48" y1="825" x2="121.06" y2="825" xlink:href="#Безымянный_градиент_13"/><linearGradient id="Безымянный_градиент_13-15" x1="86.54" y1="850.55" x2="123.89" y2="850.55" xlink:href="#Безымянный_градиент_13"/><linearGradient id="Безымянный_градиент_13-16" x1="83.6" y1="876.09" x2="126.86" y2="876.09" xlink:href="#Безымянный_градиент_13"/><linearGradient id="Безымянный_градиент_13-17" x1="80.92" y1="901.64" x2="129.62" y2="901.64" xlink:href="#Безымянный_градиент_13"/><linearGradient id="Безымянный_градиент_13-18" x1="65.57" y1="722.88" x2="92.86" y2="722.88" xlink:href="#Безымянный_градиент_13"/><linearGradient id="Безымянный_градиент_13-19" x1="117.74" y1="722.87" x2="148.81" y2="722.87" xlink:href="#Безымянный_градиент_13"/><linearGradient id="Безымянный_градиент_13-20" x1="92.51" y1="799.46" x2="118.07" y2="799.46" xlink:href="#Безымянный_градиент_13"/><linearGradient id="Безымянный_градиент_13-21" x1="92.51" y1="799.58" x2="159.56" y2="799.58" xlink:href="#Безымянный_градиент_13"/><linearGradient id="Безымянный_градиент_13-22" x1="60.93" y1="803.96" x2="85.46" y2="803.96" xlink:href="#Безымянный_градиент_13"/><linearGradient id="Безымянный_градиент_13-23" x1="77.26" y1="649.66" x2="136.31" y2="649.66" xlink:href="#Безымянный_градиент_13"/><linearGradient id="Безымянный_градиент_13-24" x1="92.52" y1="649.64" x2="118.15" y2="649.64" xlink:href="#Безымянный_градиент_13"/><linearGradient id="Безымянный_градиент_13-25" x1="96.86" y1="631.43" x2="114.77" y2="631.43" xlink:href="#Безымянный_градиент_13"/><linearGradient id="Безымянный_градиент_13-26" x1="241.86" y1="560.31" x2="288.06" y2="560.31" xlink:href="#Безымянный_градиент_13"/><linearGradient id="Безымянный_градиент_13-27" x1="221.22" y1="789.54" x2="308.41" y2="789.54" xlink:href="#Безымянный_градиент_13"/><linearGradient id="Безымянный_градиент_13-28" x1="213" y1="917.63" x2="256.31" y2="917.63" xlink:href="#Безымянный_градиент_13"/><linearGradient id="Безымянный_градиент_13-29" x1="273.18" y1="917.63" x2="316.49" y2="917.63" xlink:href="#Безымянный_градиент_13"/><linearGradient id="Безымянный_градиент_13-30" x1="140.29" y1="674.93" x2="395.82" y2="674.93" xlink:href="#Безымянный_градиент_13"/><linearGradient id="Безымянный_градиент_13-31" x1="155.39" y1="537.39" x2="380.71" y2="537.39" xlink:href="#Безымянный_градиент_13"/><linearGradient id="Безымянный_градиент_13-32" x1="179.13" y1="406.09" x2="356.97" y2="406.09" xlink:href="#Безымянный_градиент_13"/><linearGradient id="Безымянный_градиент_13-33" x1="249.72" y1="357.49" x2="282.09" y2="357.49" xlink:href="#Безымянный_градиент_13"/><linearGradient id="Безымянный_градиент_13-34" x1="241.86" y1="445.7" x2="288.06" y2="445.7" xlink:href="#Безымянный_градиент_13"/><linearGradient id="Безымянный_градиент_13-35" x1="241.86" y1="491.55" x2="288.06" y2="491.55" xlink:href="#Безымянный_градиент_13"/><linearGradient id="Безымянный_градиент_13-36" x1="241.86" y1="537.39" x2="288.06" y2="537.39" xlink:href="#Безымянный_градиент_13"/><linearGradient id="Безымянный_градиент_13-37" x1="241.86" y1="583.24" x2="288.06" y2="583.24" xlink:href="#Безымянный_градиент_13"/><linearGradient id="Безымянный_градиент_13-38" x1="241.86" y1="629.08" x2="288.06" y2="629.08" xlink:href="#Безымянный_градиент_13"/><linearGradient id="Безымянный_градиент_13-39" x1="236.58" y1="720.77" x2="293.26" y2="720.77" xlink:href="#Безымянный_градиент_13"/><linearGradient id="Безымянный_градиент_13-40" x1="231.31" y1="766.62" x2="298.34" y2="766.62" xlink:href="#Безымянный_градиент_13"/><linearGradient id="Безымянный_градиент_13-41" x1="226.03" y1="812.47" x2="303.67" y2="812.47" xlink:href="#Безымянный_градиент_13"/><linearGradient id="Безымянный_градиент_13-42" x1="221.22" y1="858.31" x2="308.63" y2="858.31" xlink:href="#Безымянный_градиент_13"/><linearGradient id="Безымянный_градиент_13-43" x1="193.67" y1="537.49" x2="242.65" y2="537.49" xlink:href="#Безымянный_градиент_13"/><linearGradient id="Безымянный_градиент_13-44" x1="287.3" y1="537.47" x2="343.07" y2="537.47" xlink:href="#Безымянный_градиент_13"/><linearGradient id="Безымянный_градиент_13-45" x1="242.01" y1="674.93" x2="287.9" y2="674.93" xlink:href="#Безымянный_градиент_13"/><linearGradient id="Безымянный_градиент_13-46" x1="242.01" y1="675.15" x2="362.35" y2="675.15" xlink:href="#Безымянный_градиент_13"/><linearGradient id="Безымянный_градиент_13-47" x1="185.35" y1="683.02" x2="229.37" y2="683.02" xlink:href="#Безымянный_градиент_13"/><linearGradient id="Безымянный_градиент_13-48" x1="214.66" y1="406.09" x2="320.63" y2="406.09" xlink:href="#Безымянный_градиент_13"/><linearGradient id="Безымянный_градиент_13-49" x1="242.04" y1="406.04" x2="288.05" y2="406.04" xlink:href="#Безымянный_градиент_13"/><linearGradient id="Безымянный_градиент_13-50" x1="249.82" y1="373.36" x2="281.98" y2="373.36" xlink:href="#Безымянный_градиент_13"/><linearGradient id="Безымянный_градиент_6" x1="512.03" y1="286.03" x2="564.23" y2="286.03" gradientUnits="userSpaceOnUse"><stop offset="0" stop-color="#cbce55"/><stop offset="1" stop-color="#217b4f"/></linearGradient><linearGradient id="Безымянный_градиент_13-51" x1="453.12" y1="791.4" x2="566.98" y2="791.4" xlink:href="#Безымянный_градиент_13"/><linearGradient id="Безымянный_градиент_6-2" x1="487.84" y1="653.13" x2="505.64" y2="653.13" xlink:href="#Безымянный_градиент_6"/><linearGradient id="Безымянный_градиент_4" x1="608.22" y1="737.62" x2="921.02" y2="737.62" gradientUnits="userSpaceOnUse"><stop offset="0" stop-color="#fdb43c"/><stop offset="1" stop-color="#f47a11"/></linearGradient><linearGradient id="Безымянный_градиент_4-2" x1="141.95" y1="827.03" x2="326.03" y2="827.03" xlink:href="#Безымянный_градиент_4"/></defs><title>Servicio de paneles solares OI</title><path class="cls-1" d="M1053.1,956.92l-395-.16-609.53-.24s-71.09-155.86-6.21-366.45C84.6,452.8,170.11,351.51,316.9,413.45c30.24,12.76,77.53,4.61,138.34-48.08q4.63-4,9.21-8.38c1.66-1.59,3.33-3.21,5-4.88,20.71-20.83,40.08-47.17,56-79.58a241.44,241.44,0,0,1,32.08-49.36,217.56,217.56,0,0,1,24.15-24.4A210.11,210.11,0,0,1,598.5,185.7a212.41,212.41,0,0,1,49.07-25.5q2.52-.92,5-1.77,5.89-2,11.89-3.64,4.11-1.14,8.27-2.12c3.39-.8,6.8-1.53,10.23-2.17h0a238.27,238.27,0,0,1,28.41-3.58q2.72-.18,5.45-.3l3.48-.12q5.34-.15,10.7-.08c89.18,1.18,182.48,49.48,239.29,136.43,28.6,43.78,48,97.35,52.88,159.63a420.62,420.62,0,0,1-.72,72.51c-.07.77-.14,1.53-.22,2.29-.12,1.23-.25,2.46-.39,3.69q-.73,7-1.71,14.06c-1.44,10.48-2.41,21.48-5.47,32C951.55,784.83,1133.51,765.5,1053.1,956.92Z"/><rect class="cls-2" x="775.37" y="295.3" width="20.87" height="659.89"/><rect class="cls-2" x="647.79" y="313.26" width="273.17" height="16.22"/><rect class="cls-2" x="658.09" y="277.34" width="4.5" height="35.92"/><ellipse class="cls-2" cx="660.5" cy="284.67" rx="12.34" ry="3.29"/><ellipse class="cls-2" cx="660.5" cy="278.09" rx="12.34" ry="3.29"/><ellipse class="cls-2" cx="660.5" cy="271.5" rx="12.34" ry="3.29"/><ellipse class="cls-2" cx="660.5" cy="264.92" rx="12.34" ry="3.29"/><rect class="cls-2" x="652.85" y="263.44" width="14.98" height="22.4"/><rect class="cls-2" x="781.95" y="277.34" width="4.5" height="35.92"/><ellipse class="cls-2" cx="784.37" cy="284.67" rx="12.34" ry="3.29"/><ellipse class="cls-2" cx="784.37" cy="278.09" rx="12.34" ry="3.29"/><ellipse class="cls-2" cx="784.37" cy="271.5" rx="12.34" ry="3.29"/><ellipse class="cls-2" cx="784.37" cy="264.92" rx="12.34" ry="3.29"/><rect class="cls-2" x="776.72" y="263.44" width="14.98" height="22.4"/><rect class="cls-2" x="906.19" y="277.34" width="4.5" height="35.92"/><ellipse class="cls-2" cx="908.61" cy="284.67" rx="12.34" ry="3.29"/><ellipse class="cls-2" cx="908.61" cy="278.09" rx="12.34" ry="3.29"/><ellipse class="cls-2" cx="908.61" cy="271.5" rx="12.34" ry="3.29"/><ellipse class="cls-2" cx="908.61" cy="264.92" rx="12.34" ry="3.29"/><rect class="cls-2" x="900.96" y="263.44" width="14.98" height="22.4"/><polygon class="cls-2" points="785.82 401.91 708.43 325.83 711.29 321.83 785.8 395.08 861.51 319.39 864.4 323.36 785.82 401.91"/><path class="cls-3" d="M117.92,812.52H92.66a.27.27,0,0,1-.24-.29V659a.27.27,0,0,1,.24-.29h25.25a.27.27,0,0,1,.24.29V812.23A.27.27,0,0,1,117.92,812.52Zm-25-.57h24.77V659.25H92.91Z"/><path class="cls-4" d="M129.26,914.7H81.16a.23.23,0,0,1-.18-.1.32.32,0,0,1-.06-.23l11.5-102.18a.26.26,0,0,1,.24-.25h25.25a.26.26,0,0,1,.24.25L129.5,914.37a.32.32,0,0,1-.06.23A.23.23,0,0,1,129.26,914.7Zm-47.82-.57H129L117.7,812.52H92.88Z"/><path class="cls-5" d="M85.8,955.26H76.58a.23.23,0,0,1-.18-.1.33.33,0,0,1-.06-.23l4.58-40.56a.26.26,0,0,1,.24-.25h19.07a.24.24,0,0,1,.2.13.33.33,0,0,1,0,.27L86,955.08A.25.25,0,0,1,85.8,955.26Zm-8.94-.57h8.78l14.22-40H81.37Z"/><path class="cls-6" d="M133.76,955.26h-9.22a.25.25,0,0,1-.22-.18l-14.43-40.56a.33.33,0,0,1,0-.27.24.24,0,0,1,.2-.13h19.07a.26.26,0,0,1,.24.25L134,954.93a.32.32,0,0,1-.06.23A.23.23,0,0,1,133.76,955.26Zm-9.06-.57h8.78l-4.51-40H110.48Z"/><path class="cls-7" d="M178,812.52H36.07a.26.26,0,0,1-.24-.23A.3.3,0,0,1,36,812l56.6-25.54.09,0h25.25l.08,0L178,812a.3.3,0,0,1,.16.32A.26.26,0,0,1,178,812.52Zm-140.58-.57H176.57l-58.7-25H92.71Z"/><path class="cls-8" d="M169.54,735.88H44.48a.26.26,0,0,1-.24-.23.3.3,0,0,1,.14-.32l48.18-25.54.1,0h25.25l.09,0,51.63,25.54a.3.3,0,0,1,.14.32A.26.26,0,0,1,169.54,735.88Zm-123.93-.57H168.34l-50.47-25H92.72Z"/><path class="cls-9" d="M156.31,659.25H57.71a.26.26,0,0,1-.24-.23.3.3,0,0,1,.15-.32L97,640.1l.09,0h17.55l.09,0,41.72,18.59a.3.3,0,0,1,.15.32A.26.26,0,0,1,156.31,659.25ZM59,658.68h96l-40.44-18H97.09Z"/><path class="cls-10" d="M114.59,640.65H97a.23.23,0,0,1-.19-.11.33.33,0,0,1,0-.25l8.25-35.56a.25.25,0,0,1,.23-.21.25.25,0,0,1,.24.2l9.3,35.56a.33.33,0,0,1,0,.25A.23.23,0,0,1,114.59,640.65Zm-17.23-.57h16.9l-9-34.25Z"/><path class="cls-11" d="M117.92,684.79H92.66a.25.25,0,0,1-.23-.19.32.32,0,0,1,.07-.32l12.41-12.56L92.51,659.18a.32.32,0,0,1-.07-.32.25.25,0,0,1,.23-.19h25.25a.25.25,0,0,1,.23.19.32.32,0,0,1-.07.32l-12.41,12.55,12.41,12.56a.32.32,0,0,1,.07.32A.25.25,0,0,1,117.92,684.79Zm-24.6-.57h23.94l-12-12.11Zm0-25,12,12.11,12-12.11Z"/><path class="cls-12" d="M117.92,710.34H92.66a.25.25,0,0,1-.23-.19.32.32,0,0,1,.07-.32l12.41-12.56L92.51,684.72a.32.32,0,0,1-.07-.32.25.25,0,0,1,.23-.19h25.25a.25.25,0,0,1,.23.19.32.32,0,0,1-.07.32l-12.41,12.55,12.41,12.56a.32.32,0,0,1,.07.32A.25.25,0,0,1,117.92,710.34Zm-24.6-.57h23.94l-12-12.11Zm0-25,12,12.11,12-12.11Z"/><path class="cls-13" d="M117.92,735.88H92.66a.25.25,0,0,1-.23-.19.32.32,0,0,1,.07-.32l12.41-12.55L92.51,710.27a.32.32,0,0,1-.07-.32.25.25,0,0,1,.23-.19h25.25a.25.25,0,0,1,.23.19.32.32,0,0,1-.07.32l-12.41,12.56,12.41,12.55a.32.32,0,0,1,.07.32A.25.25,0,0,1,117.92,735.88Zm-24.6-.57h23.94l-12-12.11Zm0-25,12,12.11,12-12.11Z"/><path class="cls-14" d="M117.92,761.43H92.66a.25.25,0,0,1-.23-.19.32.32,0,0,1,.07-.32l12.41-12.55L92.51,735.81a.32.32,0,0,1-.07-.32.25.25,0,0,1,.23-.19h25.25a.25.25,0,0,1,.23.19.32.32,0,0,1-.07.32l-12.41,12.56,12.41,12.55a.32.32,0,0,1,.07.32A.25.25,0,0,1,117.92,761.43Zm-24.6-.57h23.94l-12-12.11Zm0-25,12,12.11,12-12.11Z"/><path class="cls-15" d="M117.92,787H92.66a.25.25,0,0,1-.23-.19.32.32,0,0,1,.07-.32l12.41-12.56L92.51,761.36a.32.32,0,0,1-.07-.32.25.25,0,0,1,.23-.19h25.25a.25.25,0,0,1,.23.19.32.32,0,0,1-.07.32l-12.41,12.55,12.41,12.56a.32.32,0,0,1,.07.32A.25.25,0,0,1,117.92,787Zm-24.6-.57h23.94l-12-12.11Zm0-25,12,12.11,12-12.11Z"/><path class="cls-16" d="M120.81,838.06H89.72a.25.25,0,0,1-.23-.19.32.32,0,0,1,.08-.32l15.31-13.87L92.51,812.46a.32.32,0,0,1-.08-.32.25.25,0,0,1,.23-.19h25.25a.25.25,0,0,1,.23.19.32.32,0,0,1-.08.32l-12.39,11.22L121,837.55a.32.32,0,0,1,.08.32A.25.25,0,0,1,120.81,838.06Zm-30.38-.57H120.1L105.28,824Zm2.94-25,11.9,10.8,11.92-10.8Z"/><path class="cls-17" d="M123.65,863.61H86.78a.25.25,0,0,1-.23-.21.31.31,0,0,1,.1-.32l18.14-13.62L89.59,838a.31.31,0,0,1-.1-.32.25.25,0,0,1,.23-.21h31.09a.25.25,0,0,1,.23.21.31.31,0,0,1-.1.32L105.7,849.46l18.08,13.62a.31.31,0,0,1,.1.32A.25.25,0,0,1,123.65,863.61Zm-36-.57h35.2L105.24,849.8Zm2.94-25,14.69,11.06L120,838.06Z"/><path class="cls-18" d="M126.61,889.15H83.84a.25.25,0,0,1-.24-.22.31.31,0,0,1,.12-.32l21-13.47-18-11.57a.31.31,0,0,1-.12-.32.25.25,0,0,1,.24-.22h36.86a.25.25,0,0,1,.24.22.31.31,0,0,1-.12.32l-18,11.57,21,13.47a.31.31,0,0,1,.12.32A.25.25,0,0,1,126.61,889.15Zm-41.82-.57h40.87l-20.44-13.11Zm2.94-25,17.48,11.21,17.47-11.21Z"/><path class="cls-19" d="M129.38,914.7H81.16a.26.26,0,0,1-.24-.22.3.3,0,0,1,.13-.32l23.63-13.28L83.74,889.12a.3.3,0,0,1-.13-.32.26.26,0,0,1,.24-.22h42.77a.26.26,0,0,1,.24.22.3.3,0,0,1-.13.32l-20.91,11.75,23.67,13.28a.3.3,0,0,1,.13.32A.26.26,0,0,1,129.38,914.7Zm-47.15-.57H128.3l-23.06-12.93Zm2.68-25,20.33,11.4,20.29-11.4Z"/><path class="cls-20" d="M76.26,735.88a.22.22,0,0,1-.16-.07L65.57,724.54l.33-.42,10.33,11.06,16.24-25.3.39.35-16.4,25.54a.24.24,0,0,1-.17.11Z"/><path class="cls-21" d="M137.93,735.88a.23.23,0,0,1-.18-.09l-20-25.54.36-.39L138,735.2,148.51,725l.31.44-10.73,10.33A.22.22,0,0,1,137.93,735.88Z"/><polygon class="cls-22" points="92.82 812.45 92.5 812.01 117.76 786.47 118.07 786.9 92.82 812.45"/><path class="cls-23" d="M159.27,812.69,140.88,796.8,118,812.48a.21.21,0,0,1-.28,0L92.51,786.9l.32-.43,25.12,25.41,22.83-15.67a.21.21,0,0,1,.27,0l18.52,16Z"/><path class="cls-24" d="M61.31,812.64l-.37-.36,11.85-16.88a.23.23,0,0,1,.18-.1.22.22,0,0,1,.19.1L85.46,812l-.37.38L73,796Z"/><path class="cls-25" d="M92.66,659.25a.21.21,0,0,1-.11,0l-15.29-9.3.22-.51,15,9.14,4.3-18.25a.27.27,0,0,1,.16-.19.21.21,0,0,1,.22,0L118,658.63l18.17-8.89.19.53-18.3,9a.21.21,0,0,1-.24,0L97.18,640.85,92.9,659a.28.28,0,0,1-.14.19Z"/><path class="cls-26" d="M92.81,659.19l-.28-.46,21.93-18.59a.21.21,0,0,1,.23,0,.28.28,0,0,1,.15.21l3.33,18.59-.48.12-3.25-18.16Z"/><path class="cls-27" d="M114.41,640.56l-8.76-11.61-8.42,11.6-.37-.37,8.46-11.66L101,622.78a.33.33,0,0,1,0-.31.24.24,0,0,1,.22-.17h8.77a.24.24,0,0,1,.22.17.33.33,0,0,1,0,.31L106,628.51l8.81,11.67Zm-12.7-17.69,3.93,5.21,3.78-5.21Z"/><path class="cls-28" d="M287.62,698.37H242.3a.48.48,0,0,1-.44-.51V422.78a.48.48,0,0,1,.44-.51h45.32a.48.48,0,0,1,.44.51V697.85A.48.48,0,0,1,287.62,698.37Zm-44.88-1h44.45v-274H242.73Z"/><path class="cls-29" d="M308,881.75H221.65a.41.41,0,0,1-.33-.18.58.58,0,0,1-.1-.41l20.65-183.38a.47.47,0,0,1,.43-.45h45.32a.47.47,0,0,1,.43.45l20.36,183.38a.58.58,0,0,1-.1.41A.41.41,0,0,1,308,881.75Zm-85.83-1h85.33L287.24,698.37H242.68Z"/><path class="cls-30" d="M230,954.55H213.43a.41.41,0,0,1-.33-.17.58.58,0,0,1-.1-.41l8.22-72.8a.47.47,0,0,1,.43-.45h34.22a.42.42,0,0,1,.36.23.59.59,0,0,1,0,.48l-25.9,72.8A.44.44,0,0,1,230,954.55Zm-16-1h15.76l25.53-71.77H222Z"/><path class="cls-31" d="M316.06,954.55H299.51a.44.44,0,0,1-.4-.31l-25.9-72.8a.59.59,0,0,1,0-.48.42.42,0,0,1,.36-.23h34.22a.47.47,0,0,1,.43.45l8.22,72.8a.58.58,0,0,1-.1.41A.41.41,0,0,1,316.06,954.55Zm-16.25-1h15.76l-8.1-71.77H274.27Z"/><path class="cls-32" d="M395.38,698.37H140.72a.46.46,0,0,1-.43-.42.53.53,0,0,1,.27-.57l101.58-45.85a.37.37,0,0,1,.16,0h45.32a.37.37,0,0,1,.15,0l107.76,45.85a.53.53,0,0,1,.28.57A.46.46,0,0,1,395.38,698.37Zm-252.3-1H392.89L287.54,652.52H242.38Z"/><path class="cls-33" d="M380.27,560.83H155.83a.46.46,0,0,1-.43-.41.54.54,0,0,1,.25-.58L242.12,514a.38.38,0,0,1,.18,0h45.32a.38.38,0,0,1,.17,0l92.65,45.85a.54.54,0,0,1,.26.57A.46.46,0,0,1,380.27,560.83Zm-222.41-1H378.11L287.53,515H242.39Z"/><path class="cls-34" d="M356.53,423.29h-177a.46.46,0,0,1-.43-.42.54.54,0,0,1,.27-.57L250,388.93a.39.39,0,0,1,.16,0h31.49a.37.37,0,0,1,.15,0l74.88,33.37a.53.53,0,0,1,.28.57A.46.46,0,0,1,356.53,423.29Zm-174.71-1H354.15l-72.58-32.34H250.24Z"/><path class="cls-35" d="M281.65,389.92H250.16a.42.42,0,0,1-.35-.2.59.59,0,0,1-.07-.45l14.8-63.83a.46.46,0,0,1,.41-.38.44.44,0,0,1,.42.36l16.69,63.82a.59.59,0,0,1-.07.46A.42.42,0,0,1,281.65,389.92Zm-30.92-1h30.33L265,327.42Z"/><path class="cls-36" d="M287.62,469.14H242.3a.45.45,0,0,1-.41-.33.57.57,0,0,1,.12-.57l22.28-22.53L242,423.17a.58.58,0,0,1-.12-.57.45.45,0,0,1,.41-.33h45.32a.45.45,0,0,1,.41.33.57.57,0,0,1-.12.57L265.63,445.7l22.27,22.53a.57.57,0,0,1,.12.57A.44.44,0,0,1,287.62,469.14Zm-44.14-1h43L265,446.38Zm0-44.82L265,445l21.48-21.73Z"/><path class="cls-37" d="M287.62,515H242.3a.45.45,0,0,1-.41-.34.57.57,0,0,1,.12-.57l22.28-22.53L242,469a.57.57,0,0,1-.12-.57.45.45,0,0,1,.41-.34h45.32a.44.44,0,0,1,.41.34.57.57,0,0,1-.12.57l-22.27,22.53,22.27,22.53a.57.57,0,0,1,.12.57A.44.44,0,0,1,287.62,515Zm-44.14-1h43L265,492.22Zm0-44.82L265,490.87l21.48-21.73Z"/><path class="cls-38" d="M287.62,560.83H242.3a.45.45,0,0,1-.41-.34.58.58,0,0,1,.12-.57l22.28-22.53L242,514.86a.58.58,0,0,1-.12-.57.45.45,0,0,1,.41-.34h45.32a.45.45,0,0,1,.41.34.57.57,0,0,1-.12.57l-22.27,22.53,22.27,22.53a.57.57,0,0,1,.12.57A.45.45,0,0,1,287.62,560.83Zm-44.14-1h43L265,538.07Zm0-44.82L265,536.71,286.44,515Z"/><path class="cls-39" d="M287.62,606.67H242.3a.45.45,0,0,1-.41-.34.58.58,0,0,1,.12-.57l22.28-22.53L242,560.7a.57.57,0,0,1-.12-.57.45.45,0,0,1,.41-.34h45.32a.44.44,0,0,1,.41.34.57.57,0,0,1-.12.57l-22.27,22.53,22.27,22.53a.57.57,0,0,1,.12.57A.45.45,0,0,1,287.62,606.67Zm-44.14-1h43L265,583.91Zm0-44.82L265,582.56l21.48-21.73Z"/><path class="cls-40" d="M287.62,652.52H242.3a.45.45,0,0,1-.41-.33.58.58,0,0,1,.12-.57l22.28-22.53L242,606.55a.58.58,0,0,1-.12-.57.45.45,0,0,1,.41-.33h45.32a.44.44,0,0,1,.41.33.57.57,0,0,1-.12.57l-22.27,22.53,22.27,22.53a.57.57,0,0,1,.12.57A.44.44,0,0,1,287.62,652.52Zm-44.14-1h43L265,629.76Zm0-44.82L265,628.41l21.48-21.73Z"/><path class="cls-41" d="M292.82,744.21H237a.45.45,0,0,1-.41-.35.57.57,0,0,1,.15-.57l27.47-24.89L242,698.26a.57.57,0,0,1-.15-.57.45.45,0,0,1,.41-.35h45.32a.45.45,0,0,1,.41.35.57.57,0,0,1-.15.57L265.66,718.4l27.43,24.89a.57.57,0,0,1,.15.57A.45.45,0,0,1,292.82,744.21Zm-54.52-1h53.24L264.94,719Zm5.28-44.82,21.36,19.39,21.39-19.39Z"/><path class="cls-42" d="M297.9,790.06H231.74a.45.45,0,0,1-.42-.37.56.56,0,0,1,.18-.58l32.56-24.44-27.28-20.54a.56.56,0,0,1-.18-.58.45.45,0,0,1,.42-.37h55.8a.45.45,0,0,1,.42.37.56.56,0,0,1-.18.58l-27.37,20.54,32.45,24.44a.56.56,0,0,1,.18.58A.45.45,0,0,1,297.9,790.06Zm-64.66-1h63.17l-31.54-23.75Zm5.27-44.82,26.36,19.85,26.45-19.85Z"/><path class="cls-43" d="M303.23,835.9H226.46a.46.46,0,0,1-.42-.39.55.55,0,0,1,.21-.58l37.67-24.17L231.53,790a.55.55,0,0,1-.21-.58.46.46,0,0,1,.42-.39H297.9a.46.46,0,0,1,.42.39.55.55,0,0,1-.21.58l-32.37,20.77,37.69,24.17a.55.55,0,0,1,.21.58A.46.46,0,0,1,303.23,835.9Zm-75.05-1h73.34l-36.68-23.53Zm5.28-44.82,31.38,20.12,31.36-20.12Z"/><path class="cls-44" d="M308.19,881.75H221.65a.46.46,0,0,1-.43-.4.54.54,0,0,1,.24-.58l42.41-23.83-37.59-21.09a.54.54,0,0,1-.24-.58.46.46,0,0,1,.43-.4h76.77a.46.46,0,0,1,.43.4.55.55,0,0,1-.24.58L265.9,856.94l42.48,23.83a.54.54,0,0,1,.24.58A.46.46,0,0,1,308.19,881.75Zm-84.62-1h82.69l-41.38-23.21Zm4.82-44.82,36.49,20.47,36.42-20.47Z"/><path class="cls-45" d="M212.86,560.83a.4.4,0,0,1-.29-.13l-18.89-20.22.59-.76,18.54,19.84L242,514.16l.7.62-29.44,45.85a.43.43,0,0,1-.31.2Z"/><path class="cls-46" d="M323.55,560.83a.41.41,0,0,1-.32-.17L287.3,514.82l.64-.7,35.65,45.49,18.93-18.24.55.79-19.25,18.54A.4.4,0,0,1,323.55,560.83Z"/><polygon class="cls-47" points="242.58 698.24 242.01 697.46 287.33 651.62 287.9 652.4 242.58 698.24"/><path class="cls-48" d="M361.84,698.67l-33-28.51-41,28.13a.38.38,0,0,1-.5-.05L242,652.4l.57-.78,45.08,45.61,41-28.12a.38.38,0,0,1,.48,0l33.23,28.71Z"/><path class="cls-49" d="M186,698.59l-.67-.65,21.27-30.3a.41.41,0,0,1,.33-.19.4.4,0,0,1,.33.18l22.09,29.89-.66.67L207,668.75Z"/><path class="cls-50" d="M242.3,423.29a.38.38,0,0,1-.2-.06l-27.44-16.69.4-.91L242,422l7.71-32.76a.49.49,0,0,1,.28-.35.38.38,0,0,1,.4.08l37.26,33.19,32.61-16,.33.95-32.84,16.08a.38.38,0,0,1-.43-.06l-37-32.91-7.69,32.64a.5.5,0,0,1-.25.33A.38.38,0,0,1,242.3,423.29Z"/><path class="cls-51" d="M242.55,423.19l-.51-.83L281.39,389a.38.38,0,0,1,.41-.06.5.5,0,0,1,.27.37l6,33.37-.85.21-5.83-32.6Z"/><path class="cls-52" d="M281.32,389.75l-15.73-20.83-15.11,20.83-.66-.67L265,368.14l-7.78-10.3a.59.59,0,0,1-.07-.55.44.44,0,0,1,.4-.3H273.3a.44.44,0,0,1,.4.3.59.59,0,0,1-.06.55l-7.47,10.3L282,389.06ZM258.53,358l7.05,9.34,6.78-9.34Z"/><path class="cls-53" d="M522.12,322.32c-.83-3.87-1.31-4.24-1.31-4.24s-32.68,2.15-35.75,2.19S440,307,440,307L418.49,334.1s59,6.89,66.78,6.6c12.86-.48,36.79-12.77,36.79-12.77A13,13,0,0,0,522.12,322.32Z"/><path class="cls-54" d="M512.46,548.12s-.6,15.53,2.05,16.87,33.4-1.17,33.4-1.17-.21-4.53-5.56-5.2-12.75-4.88-16.79-11.87C519.93,537,512.46,548.12,512.46,548.12Z"/><path class="cls-55" d="M461.66,412.36s43,43.56,48.51,57.61,22.59,77.4,22.59,77.4-4.71,3.34-14.3,4a12.68,12.68,0,0,1-7.3-1.78s-24.89-57.48-27.07-63-57.51-27.15-72.71-59.9Z"/><rect class="cls-56" x="517.49" y="153.85" width="25.33" height="800.44"/><rect class="cls-56" x="362.66" y="175.63" width="331.51" height="19.68"/><rect class="cls-56" x="375.16" y="132.06" width="5.46" height="43.57"/><ellipse class="cls-56" cx="378.09" cy="140.95" rx="14.98" ry="3.99"/><ellipse class="cls-56" cx="378.09" cy="132.97" rx="14.98" ry="3.99"/><ellipse class="cls-56" cx="378.09" cy="124.98" rx="14.98" ry="3.99"/><ellipse class="cls-56" cx="378.09" cy="116.99" rx="14.98" ry="3.99"/><rect class="cls-56" x="368.8" y="115.19" width="18.18" height="27.17"/><rect class="cls-56" x="525.48" y="132.06" width="5.47" height="43.57"/><ellipse class="cls-56" cx="528.41" cy="140.95" rx="14.98" ry="3.99"/><ellipse class="cls-56" cx="528.41" cy="132.97" rx="14.98" ry="3.99"/><ellipse class="cls-56" cx="528.41" cy="124.98" rx="14.98" ry="3.99"/><ellipse class="cls-56" cx="528.41" cy="116.99" rx="14.98" ry="3.99"/><rect class="cls-56" x="519.13" y="115.19" width="18.18" height="27.17"/><rect class="cls-56" x="676.26" y="132.06" width="5.46" height="43.57"/><ellipse class="cls-56" cx="679.19" cy="140.95" rx="14.98" ry="3.99"/><ellipse class="cls-56" cx="679.19" cy="132.97" rx="14.98" ry="3.99"/><ellipse class="cls-56" cx="679.19" cy="124.98" rx="14.98" ry="3.99"/><ellipse class="cls-56" cx="679.19" cy="116.99" rx="14.98" ry="3.99"/><rect class="cls-56" x="669.9" y="115.19" width="18.18" height="27.17"/><polygon class="cls-56" points="530.17 283.16 436.26 190.88 439.72 186.03 530.15 274.88 622.03 183.06 625.53 187.88 530.17 283.16"/><rect class="cls-2" x="496.47" y="237.16" width="67.76" height="97.72"/><path class="cls-57" d="M465.38,402.94a2.28,2.28,0,0,0-.76-.24l-1.75-.22a2.55,2.55,0,0,0-2.39,1.13l-2.63,3.67,3.66,6,4.22-3.16a3.07,3.07,0,0,0,1.16-2.19,2.33,2.33,0,0,0,0-.35v-1.9A3,3,0,0,0,465.38,402.94Zm-.28,6-3.29,2.46-2.5-4.1,2-2.86a1.48,1.48,0,0,1,1.38-.65l1.76.22a1.57,1.57,0,0,1,1.25,1.64v1.9a1.72,1.72,0,0,1-.13.67A1.51,1.51,0,0,1,465.1,409Z"/><path class="cls-58" d="M542.83,373.59v7.24s-64.54,23.76-75.94,27.1c-.54.16-1,.27-1.26.33h0a1.72,1.72,0,0,0,.13-.67v-1.9a1.57,1.57,0,0,0-1.25-1.64l-1.76-.22,2.64-.89C477.58,398.8,528.58,381.35,542.83,373.59Z"/><path class="cls-54" d="M493.14,560.36s-2.78,15.2-.36,17,33.11,5.33,33.11,5.33.43-4.51-4.75-6.2-11.88-7.29-14.88-15C502.07,550.84,493.14,560.36,493.14,560.36Z"/><path class="cls-59" d="M420.07,296.4s14.6,19.33,25.6,16.89c0,0-3-4.13-6.36-7.82-1-1.1-.7-3.7-.34-5.26q.3-1.31.56-2.48c1.08-5.07,1.4-8,1.4-8l-7.41-8.9-5-6a30.65,30.65,0,0,1-1.29,7.92A51.51,51.51,0,0,1,420.07,296.4Z"/><path class="cls-60" d="M427.19,282.72s2.77,11.17,12.33,15c1.08-5.07,1.4-8,1.4-8l-7.41-8.9A18.8,18.8,0,0,0,427.19,282.72Z"/><path class="cls-59" d="M444.2,289.9s-17.86,1-18.2-12.1-2.87-21.72,8.52-22.88,13.73,3.74,14.75,8.06S448.84,289.31,444.2,289.9Z"/><path class="cls-61" d="M457.54,363.55c-.07-1.29-.12-2.6-.16-3.94a138.38,138.38,0,0,0-2-20A103.16,103.16,0,0,0,452,325.88a45.86,45.86,0,0,0-7.25-14.28s-4.81-5.77-4.83-5.79c-11.5,1.4-19.87-9.42-19.87-9.42s-27.5,28-20.33,88.14c0,0,.69,4.35,1.9,10.61.27,1.36.55,2.81.87,4.32C404.63,409.77,458.41,380.79,457.54,363.55Z"/><path class="cls-57" d="M416.05,258.4c-.2-.19-.61-.29-1.47-.17a3.33,3.33,0,0,1,1.51-.86c0-1.45.22-4.07,2.16-5.1a3.29,3.29,0,0,0-.9,2.45c1.92-3.37,6.65-6.53,20.84-8.13,18.69-2.11,14.75,13.21,12.62,15.39s-8.84-1.17-13.22.18-4.07,9.18-5.42,10.54-1-.62-3.24-1.29-1.79,3.39-.8,5.89-1.29,6.53-1.29,6.53l-3.38-3c-3.38-3-8.39-17.88-7.6-21.43Z"/><path class="cls-53" d="M410,348.88s7.72,30.57,16.46,35.52,8.24-21.22,8.24-21.22Z"/><path class="cls-62" d="M467.69,422.77c-13.86-7.24-9.28-42-10.16-59.22-.07-1.29-.12-2.6-.16-3.94a138.38,138.38,0,0,0-2-20A103.16,103.16,0,0,0,452,325.88l-19.17,3.67c-3.68.7-6.33,4.51-6.2,8.88.35,11.22-.52,32-10.6,42.67a188.7,188.7,0,0,1-14.41,14c.27,1.36.55,2.81.87,4.32,2.12,10.3,4.47,23.42,9.51,30.92C415.9,436.17,469.17,423.54,467.69,422.77Z"/><path class="cls-62" d="M418.18,298.59s5.29,2.33,12.21,13.08a66.45,66.45,0,0,1,8,17.87l-3.18.83s-4.71-19.08-19-29.21C416.26,301.16,416.3,300.79,418.18,298.59Z"/><path class="cls-59" d="M501.49,314.31s3.3-8.85,4.18-10.06,5.54-5.38,5.88-5.17.48,1.81-.36,2.75c-.59.66-1.29,1.27-.92,1.33s2-3,3.32-2,4.38,5.48,2.41,9-9.52,7.25-9.92,7.78C502.66,322.47,501.49,314.31,501.49,314.31Z"/><path class="cls-61" d="M501.49,314.31S467,350.2,463.75,350.62c-5.21.68-34.28-30.46-34.28-30.46s-3.85-7.77-12.38-4c-7.41,3.31-10.64,13.78-10.64,13.78s-2.51,10.32,1.84,16.49c9.65,13.67,46.47,27.41,57.45,25.76,14.16-2.13,40.4-47.52,40.4-47.52s1.59-4.07-.08-6.77A10.86,10.86,0,0,0,501.49,314.31Z"/><path class="cls-62" d="M509.85,562.07s-5.11,2.38-14.66,1.13a13.37,13.37,0,0,1-6.94-3.17l-3.61-13.51c-.32-1.23-.67-2.5-1-3.83l-1.44-5.42-1-3.84c-4.64-17.43-10-37.55-10.72-40.79-1.37-5.89-52.89-37.93-63.26-73.18l51.39-12.16s36.44,59.12,39.91,74.05c1.85,8,5,30.43,7.47,49.63q.25,1.9.49,3.75c.24,1.88.47,3.71.71,5.48q.24,1.93.48,3.75C509,554.53,509.85,562.07,509.85,562.07Z"/><path class="cls-58" d="M458.58,407.3S438.8,425.64,410,428.8c0,0,2.48,7.66,7.67,11.3,0,0,30.91-5.49,44-27.74Z"/><path class="cls-57" d="M525.89,584.42l-.19,0L484.2,578a1.67,1.67,0,0,1-1.25-1.9,1.51,1.51,0,0,1,1.62-1.46L525.76,581l16.63-6.28a1.41,1.41,0,0,1,1.82,1.09,1.77,1.77,0,0,1-.93,2.14l-16.93,6.39A1.25,1.25,0,0,1,525.89,584.42Z"/><path class="cls-63" d="M506.44,534.74A58.72,58.72,0,0,1,488,537.49c-2.43,0-4.45-.12-5.84-.22l-1-3.84.42,0c3.57.27,14.2,1.07,24.37-2.47Q506.21,532.89,506.44,534.74Z"/><path class="cls-63" d="M507.62,544a58.74,58.74,0,0,1-18.26,2.7c-1.84,0-3.44-.07-4.72-.14-.32-1.23-.67-2.5-1-3.83,4.1.29,14,.81,23.53-2.47Q507.39,542.15,507.62,544Z"/><rect class="cls-64" x="512.03" y="237.16" width="52.2" height="97.72"/><rect class="cls-65" x="956.38" y="495.26" width="14.57" height="462.25"/><rect class="cls-65" x="867.31" y="507.84" width="190.72" height="11.36"/><rect class="cls-65" x="874.5" y="482.68" width="3.14" height="25.16"/><ellipse class="cls-65" cx="876.18" cy="487.81" rx="8.62" ry="2.31"/><ellipse class="cls-65" cx="876.18" cy="483.2" rx="8.62" ry="2.31"/><ellipse class="cls-65" cx="876.18" cy="478.59" rx="8.62" ry="2.31"/><ellipse class="cls-65" cx="876.18" cy="473.98" rx="8.62" ry="2.31"/><rect class="cls-65" x="870.84" y="472.94" width="10.46" height="15.69"/><rect class="cls-65" x="960.98" y="482.68" width="3.14" height="25.16"/><ellipse class="cls-65" cx="962.66" cy="487.81" rx="8.62" ry="2.31"/><ellipse class="cls-65" cx="962.66" cy="483.2" rx="8.62" ry="2.31"/><ellipse class="cls-65" cx="962.66" cy="478.59" rx="8.62" ry="2.31"/><ellipse class="cls-65" cx="962.66" cy="473.98" rx="8.62" ry="2.31"/><rect class="cls-65" x="957.32" y="472.94" width="10.46" height="15.69"/><rect class="cls-65" x="1047.72" y="482.68" width="3.14" height="25.16"/><ellipse class="cls-65" cx="1049.4" cy="487.81" rx="8.62" ry="2.31"/><ellipse class="cls-65" cx="1049.4" cy="483.2" rx="8.62" ry="2.31"/><ellipse class="cls-65" cx="1049.4" cy="478.59" rx="8.62" ry="2.31"/><ellipse class="cls-65" cx="1049.4" cy="473.98" rx="8.62" ry="2.31"/><rect class="cls-65" x="1044.06" y="472.94" width="10.46" height="15.69"/><polygon class="cls-65" points="963.68 569.94 909.65 516.65 911.64 513.85 963.66 565.15 1016.52 512.13 1018.53 514.91 963.68 569.94"/><rect class="cls-66" x="453.12" y="629.39" width="113.86" height="324.02"/><rect class="cls-55" x="523.68" y="629.39" width="43.3" height="324.02"/><rect class="cls-62" x="489.92" y="640.58" width="23.05" height="48.18"/><rect class="cls-67" x="484.08" y="640.58" width="23.05" height="48.18"/><path class="cls-55" d="M460.8,750l-.14-.66c.07,0,7.26-2.35,8.38-16.23.93-11.52,2.52-17.55,5.32-20.14a5.14,5.14,0,0,1,4.56-1.3c2.23.37,4.21,2.75,6.5,5.51,4.11,4.94,9.23,11.1,18.27,8.22,13.88-4.42,19.67-21.93,19.72-22.1l.54.24c-.06.18-6,18-20.11,22.52-9.37,3-14.62-3.33-18.84-8.4-2.22-2.67-4.13-5-6.17-5.31a4.58,4.58,0,0,0-4.12,1.16c-2.62,2.43-4.19,8.5-5.1,19.67-.61,7.5-3,11.67-4.82,13.84A9.45,9.45,0,0,1,460.8,750Z"/><polygon class="cls-68" points="523.68 760.22 489.63 760.22 489.63 688.75 490.21 688.75 490.21 759.54 523.68 759.54 523.68 760.22"/><polygon class="cls-68" points="523.68 752.46 495.32 752.46 495.32 688.75 495.9 688.75 495.9 751.78 523.68 751.78 523.68 752.46"/><polygon class="cls-68" points="523.68 743.52 503.18 743.52 503.18 688.75 503.76 688.75 503.76 742.84 523.68 742.84 523.68 743.52"/><polygon class="cls-68" points="523.68 873.39 473.08 873.39 473.08 800.1 523.68 800.1 523.68 800.78 473.67 800.78 473.67 872.71 523.68 872.71 523.68 873.39"/><polygon class="cls-68" points="523.68 865.21 481.07 865.21 481.07 806.24 523.68 806.24 523.68 806.92 481.65 806.92 481.65 864.52 523.68 864.52 523.68 865.21"/><polygon class="cls-68" points="523.68 854.42 489.63 854.42 489.63 815.44 523.68 815.44 523.68 816.12 490.21 816.12 490.21 853.74 523.68 853.74 523.68 854.42"/><rect class="cls-62" x="468.46" y="895.09" width="55.22" height="40.28"/><polygon class="cls-55" points="476.85 895.09 476.27 895.09 476.27 882.25 523.68 882.25 523.68 882.93 476.85 882.93 476.85 895.09"/><polygon class="cls-55" points="489.29 895.09 488.71 895.09 488.71 888.5 523.68 888.5 523.68 889.18 489.29 889.18 489.29 895.09"/><ellipse class="cls-55" cx="497.43" cy="644.88" rx="0.9" ry="1.07"/><ellipse class="cls-55" cx="500.79" cy="644.88" rx="0.9" ry="1.07"/><ellipse class="cls-63" cx="503.83" cy="644.88" rx="0.9" ry="1.07"/><rect class="cls-69" x="487.84" y="647.39" width="17.8" height="11.47"/><path class="cls-59" d="M477.39,659.93s3.1-7.58,5.61-9.93,9.23-1.78,9.48-1.18c.8,1.86-5.39,4.77-6.1,6.48s2.25,1.54,0,4.51c-1.92,2.51-6.52,4.91-6.52,4.91Z"/><path class="cls-54" d="M480.06,659.06c-1.63-3-2.12-3.14-2.12-3.14S451,668.58,448.43,669.64s-41,3.72-41,3.72l-11.6,30s51.23-13.76,57.7-16.59c10.69-4.67,27.84-23,27.84-23A11.24,11.24,0,0,0,480.06,659.06Z"/><path class="cls-70" d="M413.13,939.9s.59,11.14,2.34,13.76h27a5.29,5.29,0,0,0-4.31-4.55c-4.27-.87-11.42-4.41-14-11.06C421.46,931.06,413.13,939.9,413.13,939.9Z"/><path class="cls-70" d="M365.09,935.32s-1.7,16.9.61,17.15c.31,0,11.13,0,14.08.53,4.81.85,12.82.11,12.82.11a1.5,1.5,0,0,0,1.15-2.25,5.18,5.18,0,0,0-3.67-2.77c-4.26-1-11.35-4.65-13.84-11.35C373.63,929.69,365.09,935.32,365.09,935.32Z"/><path class="cls-53" d="M425.83,791.64s-6.79,28-26.27,76.64a388.89,388.89,0,0,0-13.5,39q-.56,2-1,3.78-.78,2.93-1.4,5.51-.47,2-.86,3.74c-2.55,11.71-2.5,17-2.5,17a20.55,20.55,0,0,1-9.71,1.34c-2.69-.32-8.59-3.29-8.59-3.29s.64-7.84,1.92-18.93c.14-1.22.29-2.47.45-3.77.21-1.73.43-3.52.67-5.36.16-1.23.33-2.49.5-3.75,2.26-16.52,5.62-35.69,10.1-47.65,9.2-24.54,11.08-91.72,11.08-91.72Z"/><path class="cls-61" d="M436.7,777.35a853.46,853.46,0,0,1-5.79,86.81c-2.2,18.39-3.39,33.13-4,44.54q-.1,2-.19,3.88c-.09,2-.16,3.9-.22,5.68,0,1.34-.07,2.62-.1,3.83A175.68,175.68,0,0,0,426.7,940a7.18,7.18,0,0,1-1.19.63h0a19.38,19.38,0,0,1-7.82,1.42,16,16,0,0,1-4.45-.62,12.23,12.23,0,0,1-3.29-1.42s-1-7.09-2.19-17.38c-.15-1.23-.28-2.51-.43-3.83-.19-1.74-.38-3.56-.57-5.43-.12-1.25-.25-2.52-.37-3.82-1.54-16.35-2.73-35.77-1.45-48.88.2-2.09.3-4.42.31-6.94h0c0-11.81-2-27.71-4.5-42.54l0-.12c-2.54-15.26-5.5-29.35-7.1-36.65-.72-3.3-1.17-5.21-1.17-5.21l1.35-.05h0l10.65-.4,29-1.11,1.79-.07,1.45-.05S436.79,771.07,436.7,777.35Z"/><path class="cls-59" d="M406.64,666l7.2,6.28,10.4-2.58c-.14-1.12-.83-5.75-1.46-9.94l-.11-.74-1-6.63-9.71-5.7-3.62-2.13c0,.07.28,4,.32,4.53A42.45,42.45,0,0,1,406.64,666Z"/><path class="cls-54" d="M423.51,662.88c-.23-.11-14.15-5-15.66-4.36s-2.41,4-2.41,4l21.49,7.21S426.42,664.32,423.51,662.88Z"/><path class="cls-58" d="M386,772.89c2.36,12.68,51.55-27.1,50.89-34.84l-.22-2.56c-.91-10.77-1.78-21.31-1.84-28.19a113.65,113.65,0,0,0-1.68-17.61c-.85-5.12-1.91-9.76-2.82-13.38a15.36,15.36,0,0,0-3.44-6.55,12.37,12.37,0,0,0-3.92-2.94,9.76,9.76,0,0,0-1.22-.5c-5.93-2-14.12-4.53-16.35-3.77-6,2.09-10.49,14.57-13.66,30.48C385.86,722.81,384.49,764.63,386,772.89Z"/><path class="cls-60" d="M409.38,649.31c2.13,4.81,10.08,9,13.4,10.49l-.11-.74-1-6.63-9.71-5.7C409.81,646.69,408.5,647.33,409.38,649.31Z"/><path class="cls-59" d="M426.39,651.76s-17.53,6.44-20.76-6.48S398,624.5,409,619.84s14.47-.49,16.44,3.51S430.87,649.75,426.39,651.76Z"/><path class="cls-55" d="M424.76,622.11s-1.12,15-3.76,14.38-5-1.14-4.65,3.39.51,10-7.62,10.78-16.29-24.12-14.06-28.8C401.12,608.37,434.08,605.64,424.76,622.11Z"/><path class="cls-54" d="M435.43,767.54c-4.87,2.07.08-5.7,0-7.32-.38-7.13,2-16.14,1.27-24.72l-29.75-21S399.89,767.21,435.43,767.54Z"/><path class="cls-61" d="M386,772.89c12.7,27.73,14.72,38.32,14.72,38.32,11.06-1.48,30-27.09,36-33.92,0,0,.82-31.5.16-39.24l-9.18-.31s-16.6,5-20.9-1.77-2.44-39.73-2.44-39.73L391.78,693C385.86,722.81,382.61,765.45,386,772.89Z"/><path class="cls-59" d="M461.39,719.76s6-4.82,7.19-5.24,4.91-.87,5.08-.53.69,1.42,0,1.78-1.47.23-1.23.49,2.72-1.13,3.29.35,1.07,6.57-1.83,8.11-10.06.15-10.58.33C459,726.55,461.39,719.76,461.39,719.76Z"/><path class="cls-58" d="M461.45,718.45s-29.51,5.91-32.12,4.41c-4.17-2.39,1.62-37.66,1.62-37.66s.25-8-7.68-9.88c-6.89-1.64-13.53,4.44-13.53,4.44s-6,6.37-5.27,13.44c1.71,15.66,4.37,47.52,13.27,52.4,11.47,6.3,44.66-17.46,44.66-17.46a7.71,7.71,0,0,0,.95-4.56A11.52,11.52,0,0,0,461.45,718.45Z"/><path class="cls-61" d="M401.95,695.62l2.45.62s5.17-26.35,22.54-26.48a12.37,12.37,0,0,0-3.92-2.94C416.64,668.82,405.59,675.23,401.95,695.62Z"/><path class="cls-59" d="M487,658.87l3-4.49s-.74-1.11-2.24.21c-.88.77-3.23,2.56-3.23,2.56Z"/><g class="cls-71"><path class="cls-63" d="M386.07,907.25q-.56,2-1,3.78a60,60,0,0,1-17.29-2.83c-1-.3-1.9-.61-2.71-.89.16-1.23.33-2.49.5-3.75C370.16,905.2,377.95,907.47,386.07,907.25Z"/></g><g class="cls-71"><path class="cls-63" d="M383.64,916.54q-.47,2-.86,3.74a61.73,61.73,0,0,1-15.71-2.8c-1.17-.36-2.23-.72-3.17-1.05.14-1.22.29-2.47.45-3.77A61.6,61.6,0,0,0,383.64,916.54Z"/></g><path class="cls-63" d="M426.92,908.71q-.1,2-.19,3.88a60.13,60.13,0,0,1-16.34,1.11c-1.35-.08-2.58-.19-3.63-.31-.12-1.25-.25-2.52-.37-3.82A60.45,60.45,0,0,0,426.92,908.71Z"/><path class="cls-63" d="M426.52,918.27c0,1.34-.07,2.62-.1,3.83a61.18,61.18,0,0,1-15.08.85c-1.34-.08-2.54-.18-3.59-.29-.15-1.23-.28-2.51-.43-3.83A62.25,62.25,0,0,0,426.52,918.27Z"/><polygon class="cls-70" points="743.89 948.74 763.69 948.45 809.93 721.58 790.13 721.87 743.89 948.74"/><path class="cls-70" d="M711.18,953.78H800c0-6.12-4.21-11.07-9.41-11.07h-70c-5.2,0-9.41,5-9.41,11.07Z"/><polygon class="cls-54" points="916.3 848.74 907.77 798.4 907.77 798.4 907.75 798.29 879.37 630.76 603.5 630.81 640.43 848.79 692.83 848.78 692.83 848.78 693.32 848.78 751.96 848.77 752.14 848.77 752.14 848.77 810.53 848.76 810.93 848.76 810.93 848.76 869.19 848.75 869.19 848.75 869.72 848.75 869.72 848.75 916.3 848.74"/><polygon class="cls-72" points="921.02 844.43 645.15 844.48 608.22 630.81 884.09 630.76 921.02 844.43"/><polygon class="cls-70" points="698.08 844.47 697.55 844.47 660.72 631.38 661.25 631.38 698.08 844.47"/><polygon class="cls-70" points="756.87 844.46 756.34 844.46 719.51 631.37 720.04 631.37 756.87 844.46"/><polygon class="cls-70" points="815.65 844.45 815.13 844.45 778.3 631.36 778.83 631.36 815.65 844.45"/><polygon class="cls-70" points="874.44 844.44 873.91 844.44 837.08 631.35 837.61 631.35 874.44 844.44"/><polygon class="cls-70" points="892.86 681.47 616.99 681.52 616.89 680.94 892.76 680.89 892.86 681.47"/><polygon class="cls-70" points="902.68 738.28 626.81 738.33 626.71 737.74 902.58 737.7 902.68 738.28"/><polygon class="cls-70" points="912.49 795.09 636.62 795.13 636.52 794.55 912.39 794.5 912.49 795.09"/><polygon class="cls-70" points="670.69 687.5 663.92 681.22 668.52 674.94 675.28 681.22 670.69 687.5"/><polygon class="cls-70" points="680.56 744.6 673.79 738.32 678.38 732.04 685.15 738.32 680.56 744.6"/><polygon class="cls-70" points="729.74 687.49 722.97 681.21 727.57 674.93 734.33 681.21 729.74 687.49"/><polygon class="cls-70" points="739.61 744.59 732.84 738.31 737.43 732.03 744.2 738.31 739.61 744.59"/><polygon class="cls-70" points="788.52 687.48 781.76 681.2 786.35 674.92 793.12 681.2 788.52 687.48"/><polygon class="cls-70" points="846.78 687.47 840.02 681.19 844.61 674.91 851.38 681.19 846.78 687.47"/><polygon class="cls-70" points="690.32 801.11 683.56 794.83 688.15 788.55 694.92 794.83 690.32 801.11"/><polygon class="cls-70" points="749.37 801.1 742.61 794.82 747.2 788.54 753.97 794.82 749.37 801.1"/><polygon class="cls-70" points="808.16 801.09 801.4 794.81 805.99 788.53 812.75 794.81 808.16 801.09"/><polygon class="cls-70" points="866.42 801.08 859.66 794.8 864.25 788.52 871.01 794.8 866.42 801.08"/><polygon class="cls-70" points="856.65 744.57 849.89 738.29 854.48 732.01 861.25 738.29 856.65 744.57"/><polygon class="cls-70" points="798.39 744.58 791.63 738.3 796.22 732.02 802.99 738.3 798.39 744.58"/><polygon class="cls-55" points="833.28 713.42 830.01 714.38 825.68 694.03 828.94 693.07 833.28 713.42"/><path class="cls-55" d="M828.45,686.47v0c.16,1.57-.22,3.26-1.48,3.81-1.68.74-2.82-.55-3.25-2.54l-.11-.52c-.14-.7-1.52-.13-1.72.55a6.66,6.66,0,0,0,.07,3.93,4.82,4.82,0,0,0,5.15,3.58c2.91-.47,4.76-3.78,4.06-7a6.07,6.07,0,0,0-1.06-2.38C829.64,685.24,828.35,685.62,828.45,686.47Z"/><path class="cls-55" d="M830.1,721.4v0c-.16-1.57.22-3.26,1.48-3.81,1.68-.74,2.82.55,3.25,2.54l.11.52c.14.7,1.52.13,1.72-.55a6.65,6.65,0,0,0-.07-3.93,4.82,4.82,0,0,0-5.15-3.58c-2.91.47-4.76,3.78-4.06,7a6.07,6.07,0,0,0,1.06,2.38C828.91,722.63,830.2,722.24,830.1,721.4Z"/><path class="cls-59" d="M822.34,642s-3.3-8.07-6-10.58-9.83-1.9-10.11-1.25c-.85,2,5.74,5.08,6.5,6.9s-2.4,1.64,0,4.81c2,2.67,7,5.22,7,5.22Z"/><path class="cls-73" d="M819.49,641.08c1.74-3.18,2.26-3.35,2.26-3.35s28.71,13.48,31.45,14.61,43.71,4,43.71,4l12.36,32s-54.59-14.66-61.49-17.67c-11.4-5-29.67-24.48-29.67-24.48A12,12,0,0,1,819.49,641.08Z"/><path class="cls-59" d="M815.19,639.66a3.51,3.51,0,0,0-.34-3.69c-1-1.44-1.26,1.3-3,.61-1.46-.57-5.38-1.25-2.84,1.15,2.33,2.21,4.64,5.19,5.5,5.88S815.19,639.66,815.19,639.66Z"/><path class="cls-54" d="M890.82,940.23s-.63,11.87-2.5,14.66h-28.8a5.64,5.64,0,0,1,4.6-4.85c4.55-.93,12.17-4.7,14.92-11.78C881.94,930.81,890.82,940.23,890.82,940.23Z"/><path class="cls-54" d="M941.93,938.58s1.9,14.77-.57,15c-.33,0-11.86,0-15,.56-5.12.9-13.67.11-13.67.11a1.6,1.6,0,0,1-1.23-2.4,5.52,5.52,0,0,1,3.91-3c4.54-1,12.09-5,14.74-12.09C932.92,929.35,941.93,938.58,941.93,938.58Z"/><path class="cls-70" d="M941.93,938.57a24.19,24.19,0,0,1-6.9,1.62,17.75,17.75,0,0,1-6.33-.47,9.11,9.11,0,0,1-1.07-.36s-.49-7.21-4.43-22.41q-.44-1.72-1-3.59-.66-2.44-1.44-5.12c-.34-1.17-.69-2.37-1.07-3.6-3.28-10.86-7.92-24.38-14.46-40.69q-3.24-8.11-6.06-15.47c-16.13-42.24-21.94-66.18-21.94-66.18l.71-.49,28.61-20.06,4.81-3.37h0l7.57-5.31s.11,3.81.39,10c0,.09,0,.17,0,.26,1,20.74,3.89,67.41,11.4,87.44,4.57,12.18,7.3,32.09,8.92,49.86.11,1.25.22,2.5.32,3.72q.24,2.79.43,5.46c.1,1.26.18,2.5.26,3.72C941.7,927.88,941.93,938.57,941.93,938.57Z"/><path class="cls-56" d="M912.85,758.43s-.48,2-1.25,5.56c-1.71,7.8-4.89,22.87-7.6,39.16-2.62,15.8-4.81,32.75-4.79,45.33,0,2.68.11,5.15.32,7.38,1.32,13.41-.16,33.15-2.08,50.26q-.22,1.9-.44,3.76c-.22,1.88-.45,3.72-.68,5.5-.16,1.27-.32,2.52-.48,3.72-1.7,12.77-3.26,21.9-3.26,21.9s-.68.18-1.87.4a55.8,55.8,0,0,1-7.76.94,12.17,12.17,0,0,1-5.35-1.32c-.78-.37-1.28-.67-1.28-.67s.67-6.95.23-22.16c0-.59,0-1.2-.06-1.82l-.07-1.9c-.06-1.67-.13-3.43-.23-5.28-.06-1.21-.12-2.45-.19-3.73-.67-11.93-1.92-27.14-4.17-45.92a907.85,907.85,0,0,1-6.17-92.47c-.09-6.7,0-10.45,0-10.45l1.54.06,1.91.07,31,1.18,11.35.43h0Z"/><path class="cls-59" d="M897.74,648.52l-7.67,6.69L879,652.46c.15-1.19.88-6.12,1.55-10.59l.12-.78,1.06-7.07,10.35-6.07,3.86-2.27c0,.08-.3,4.22-.34,4.82A45.2,45.2,0,0,0,897.74,648.52Z"/><path class="cls-73" d="M879.76,645.14c.24-.12,15.08-5.27,16.69-4.65s2.57,4.3,2.57,4.3l-22.9,7.68S876.66,646.68,879.76,645.14Z"/><path class="cls-74" d="M919.7,762.33c-2.51,13.5-54.94-28.87-54.24-37.11l.23-2.72c1-11.48,1.9-22.7,2-30a121,121,0,0,1,1.79-18.76c.91-5.45,2-10.4,3-14.25a16.36,16.36,0,0,1,3.66-7,13.19,13.19,0,0,1,4.18-3.14,10.42,10.42,0,0,1,1.3-.54c6.31-2.16,15.05-4.83,17.42-4,6.42,2.22,11.18,15.52,14.56,32.47C919.88,709,921.34,753.53,919.7,762.33Z"/><path class="cls-60" d="M894.81,630.69c-2.27,5.12-10.74,9.55-14.28,11.18l.12-.78,1.06-7.07,10.35-6.07C894.36,627.9,895.75,628.58,894.81,630.69Z"/><path class="cls-59" d="M876.69,633.3s18.68,6.86,22.13-6.9,8.18-22.14-3.6-27.1-15.42-.52-17.52,3.74S871.92,631.16,876.69,633.3Z"/><path class="cls-57" d="M878.43,601.72s1.19,16,4,15.32,5.36-1.21,5,3.62-4.31,10.4,4.36,11.25,21.13-25.46,18.75-30.45C903.61,587.08,868.5,584.18,878.43,601.72Z"/><path class="cls-73" d="M867,756.63c5.19,2.21-.09-6.07,0-7.8.4-7.59-2.13-17.19-1.35-26.33l31.71-22.32S904.93,756.27,867,756.63Z"/><path class="cls-56" d="M919.7,762.33C906.17,791.87,904,803.15,904,803.15c-11.78-1.58-32-28.85-38.37-36.13,0,0-.87-33.56-.17-41.8l9.79-.33s17.69,5.28,22.27-1.89,2.6-42.32,2.6-42.32l13.44-3.42C919.88,709,923.34,754.4,919.7,762.33Z"/><path class="cls-59" d="M839.38,705.73s-6.44-5.13-7.67-5.58-5.23-.93-5.41-.56-.74,1.51,0,1.9,1.57.25,1.31.52-2.9-1.21-3.5.38-1.14,7,1.95,8.64,10.72.16,11.27.35C842,713,839.38,705.73,839.38,705.73Z"/><path class="cls-74" d="M839.32,704.34s31.45,6.29,34.24,4.7c4.45-2.55-1.73-40.12-1.73-40.12s-.26-8.51,8.18-10.52c7.34-1.75,14.42,4.73,14.42,4.73s6.44,6.79,5.62,14.31c-1.82,16.68-4.66,50.61-14.14,55.81-12.22,6.71-47.6-18.6-47.6-18.6a8.21,8.21,0,0,1-1-4.85A12.28,12.28,0,0,1,839.32,704.34Z"/><path class="cls-56" d="M902.73,680l-2.61.66s-5.51-28.07-24-28.21a13.19,13.19,0,0,1,4.18-3.14C887.08,651.48,898.85,658.3,902.73,680Z"/><path class="cls-63" d="M897.47,906.11q-.22,1.9-.44,3.76a57.06,57.06,0,0,1-17.14,0c-1.38-.2-2.61-.42-3.66-.63-.06-1.21-.12-2.45-.19-3.73C880.45,906.38,888.94,907.73,897.47,906.11Z"/><path class="cls-63" d="M876.45,914.48l.07,1.9.06,1.82c1.06.2,2.29.42,3.68.63a58.11,58.11,0,0,0,15.61.26c.16-1.21.32-2.45.48-3.72A58.75,58.75,0,0,1,876.45,914.48Z"/><g class="cls-71"><path class="cls-63" d="M940,904.35a58.61,58.61,0,0,1-16.42,3.7c-1,.09-2,.14-2.8.19-.34-1.17-.69-2.37-1.07-3.6a58.05,58.05,0,0,0,20-4C939.81,901.87,939.92,903.12,940,904.35Z"/></g><g class="cls-71"><path class="cls-63" d="M940.72,913.52a59.43,59.43,0,0,1-15.26,3.27c-.8.07-1.56.13-2.26.16q-.44-1.72-1-3.59a58.57,58.57,0,0,0,18.21-3.56C940.55,911.06,940.64,912.31,940.72,913.52Z"/></g><path class="cls-75" d="M171.52,775.31s2.46-4.41,4.19-5.62,5.86-.21,6,.19c.36,1.24-3.68,2.44-4.25,3.43s1.29,1.17-.33,2.8a14.34,14.34,0,0,1-4.4,2.41Z"/><path class="cls-55" d="M173.25,775c-.8-2-1.09-2.16-1.09-2.16s-17.64,5.24-19.31,5.65-25.76-1.69-25.76-1.69l-9.32,17.53s32.81-3.56,37-4.68c7-1.86,18.93-11.57,18.93-11.57A7.2,7.2,0,0,0,173.25,775Z"/><path class="cls-75" d="M175.85,774.59l1.93-2.07c.7-.74,1.19-1.77,1.49-2.05.7-.67,1,1.14-.13,3.17A10.49,10.49,0,0,1,176,777C175.45,777.29,175.85,774.59,175.85,774.59Z"/><polygon class="cls-70" points="221.79 951.27 233.44 951.1 260.65 817.59 249 817.76 221.79 951.27"/><path class="cls-70" d="M202.53,954.24h52.26c0-3.6-2.48-6.52-5.54-6.52H208.07c-3.06,0-5.54,2.92-5.54,6.52Z"/><polygon class="cls-54" points="323.25 892.42 318.23 862.8 318.23 862.8 318.22 862.74 301.51 764.14 139.17 764.17 160.9 892.45 191.74 892.45 191.74 892.45 192.03 892.45 226.54 892.44 226.64 892.44 226.64 892.44 261 892.43 261.24 892.43 261.24 892.43 295.52 892.43 295.52 892.43 295.83 892.43 295.83 892.43 323.25 892.42"/><polygon class="cls-76" points="326.03 889.89 163.68 889.91 141.95 764.17 304.29 764.14 326.03 889.89"/><polygon class="cls-70" points="194.83 889.91 194.52 889.91 172.84 764.51 173.15 764.51 194.83 889.91"/><polygon class="cls-70" points="229.42 889.9 229.11 889.9 207.44 764.5 207.75 764.5 229.42 889.9"/><polygon class="cls-70" points="264.02 889.9 263.71 889.9 242.03 764.49 242.34 764.49 264.02 889.9"/><polygon class="cls-70" points="298.61 889.89 298.3 889.89 276.63 764.49 276.94 764.49 298.61 889.89"/><polygon class="cls-70" points="309.45 793.99 147.11 794.01 147.05 793.67 309.39 793.64 309.45 793.99"/><polygon class="cls-70" points="315.23 827.42 152.88 827.44 152.82 827.1 315.17 827.07 315.23 827.42"/><polygon class="cls-70" points="321.01 860.85 158.66 860.87 158.6 860.53 320.95 860.5 321.01 860.85"/><polygon class="cls-70" points="178.71 797.53 174.73 793.84 177.43 790.14 181.41 793.84 178.71 797.53"/><polygon class="cls-70" points="184.51 831.14 180.53 827.44 183.24 823.74 187.22 827.44 184.51 831.14"/><polygon class="cls-70" points="213.46 797.53 209.48 793.83 212.18 790.13 216.16 793.83 213.46 797.53"/><polygon class="cls-70" points="219.26 831.13 215.28 827.43 217.99 823.74 221.97 827.43 219.26 831.13"/><polygon class="cls-70" points="248.05 797.52 244.07 793.83 246.78 790.13 250.76 793.83 248.05 797.52"/><polygon class="cls-70" points="282.34 797.52 278.36 793.82 281.06 790.12 285.04 793.82 282.34 797.52"/><polygon class="cls-70" points="190.26 864.39 186.28 860.7 188.99 857 192.97 860.7 190.26 864.39"/><polygon class="cls-70" points="225.01 864.39 221.03 860.69 223.74 857 227.72 860.69 225.01 864.39"/><polygon class="cls-70" points="259.61 864.38 255.63 860.69 258.33 856.99 262.31 860.68 259.61 864.38"/><polygon class="cls-70" points="293.89 864.38 289.91 860.68 292.62 856.98 296.6 860.68 293.89 864.38"/><polygon class="cls-70" points="288.14 831.12 284.17 827.42 286.87 823.73 290.85 827.42 288.14 831.12"/><polygon class="cls-70" points="253.86 831.12 249.88 827.43 252.58 823.73 256.56 827.43 253.86 831.12"/><polygon class="cls-55" points="163.37 812.78 165.29 813.35 167.84 801.38 165.93 800.81 163.37 812.78"/><path class="cls-55" d="M166.21,796.92h0a2.12,2.12,0,0,0,.87,2.24c1,.44,1.66-.32,1.91-1.5l.06-.31c.08-.41.89-.07,1,.33a3.92,3.92,0,0,1,0,2.31,2.83,2.83,0,0,1-3,2.11,3.36,3.36,0,0,1-2.39-4.15,3.58,3.58,0,0,1,.62-1.4C165.51,796.2,166.27,796.43,166.21,796.92Z"/><path class="cls-55" d="M165.24,817.48h0a2.12,2.12,0,0,0-.87-2.25c-1-.44-1.66.32-1.91,1.5l-.06.3c-.08.41-.89.08-1-.32a3.92,3.92,0,0,1,0-2.31,2.84,2.84,0,0,1,3-2.11,3.36,3.36,0,0,1,2.39,4.15,3.57,3.57,0,0,1-.62,1.4C165.94,818.2,165.18,818,165.24,817.48Z"/><path class="cls-54" d="M129.51,946.26s.37,7,1.47,8.63h16.95a3.32,3.32,0,0,0-2.71-2.85c-2.68-.55-7.16-2.76-8.78-6.93C134.73,940.72,129.51,946.26,129.51,946.26Z"/><path class="cls-54" d="M99.43,945.29s-1.12,8.69.33,8.85c.19,0,7,0,8.83.33a39.35,39.35,0,0,0,8,.07.94.94,0,0,0,.72-1.41,3.25,3.25,0,0,0-2.3-1.74c-2.67-.6-7.12-2.91-8.68-7.11C104.73,939.86,99.43,945.29,99.43,945.29Z"/><path class="cls-70" d="M137.48,853.32s-4.27,17.56-16.48,48c-4,9.87-6.73,18-8.67,24.49-.23.76-.45,1.49-.65,2.19q-.49,1.69-.89,3.21c-.2.75-.39,1.47-.57,2.17a79.49,79.49,0,0,0-2.38,12.33,9.93,9.93,0,0,1-4.43.71,13.07,13.07,0,0,1-4-1.18s.12-5.66.63-13.47c0-.71.09-1.43.14-2.17.07-1,.15-2,.23-3.11.06-.72.12-1.44.18-2.17.94-10.81,2.56-23.26,5.38-30.75,5.77-15.39,6.95-57.5,6.95-57.5Z"/><path class="cls-56" d="M140.66,898.78c-1.47,12.31-2.22,22-2.57,29.35,0,.76-.07,1.5-.1,2.22,0,1.14-.08,2.22-.12,3.23,0,.76,0,1.49,0,2.18-.13,7.24.19,10.58.19,10.58a12.4,12.4,0,0,1-4.54.91,21.16,21.16,0,0,1-5-.54s-.74-4.33-1.61-10.66h0q-.15-1.06-.3-2.19c-.13-1-.27-2.05-.4-3.12-.09-.72-.18-1.44-.27-2.19-1.26-10.55-2.33-23.41-1.49-31.94,1.64-16.71-7.83-57.33-7.83-57.33l27.77-1.06A515.31,515.31,0,0,1,140.66,898.78Z"/><path class="cls-59" d="M125.44,774.59l4.51,3.94,6.52-1.62c-.09-.7-.52-3.6-.91-6.23l-.07-.46-.63-4.16-6.09-3.58-2.27-1.33s.18,2.48.2,2.84A26.6,26.6,0,0,1,125.44,774.59Z"/><path class="cls-55" d="M136,772.61c-.14-.07-8.87-3.1-9.82-2.74s-1.51,2.53-1.51,2.53l13.48,4.52S137.84,773.51,136,772.61Z"/><path class="cls-62" d="M112.51,841.57c1.48,7.95,32.33-17,31.92-21.84l-.14-1.6c-.57-6.75-1.12-13.36-1.15-17.67a71.21,71.21,0,0,0-1.05-11c-.54-3.21-1.19-6.12-1.77-8.39a9.63,9.63,0,0,0-2.16-4.11,7.77,7.77,0,0,0-2.46-1.85,6.24,6.24,0,0,0-.76-.31c-3.72-1.27-8.86-2.84-10.25-2.36-3.78,1.31-6.58,9.13-8.57,19.11C112.4,810.18,111.54,836.39,112.51,841.57Z"/><path class="cls-60" d="M127.16,764.1c1.34,3,6.32,5.62,8.4,6.58l-.07-.46-.63-4.16-6.09-3.58C127.43,762.46,126.61,762.86,127.16,764.1Z"/><path class="cls-59" d="M137.82,765.64s-11,4-13-4.06-4.82-13,2.12-15.95,9.08-.31,10.31,2.2S140.63,764.38,137.82,765.64Z"/><path class="cls-55" d="M136.8,747.05s-.7,9.42-2.36,9-2.81-.72-2.91,2.13.45,6.36-4.65,6.87-10.34-15.23-8.94-18.16C122,738.44,142.64,736.73,136.8,747.05Z"/><path class="cls-55" d="M143.5,838.21c-3.06,1.3.05-3.57,0-4.59-.24-4.47,1.25-10.12.8-15.49L125.63,805S121.2,838,143.5,838.21Z"/><path class="cls-56" d="M112.51,841.57c8,17.38,9.23,24,9.23,24,6.93-.93,18.81-17,22.58-21.26,0,0,.51-19.75.1-24.6l-5.76-.19s-10.41,3.11-13.11-1.11S124,793.52,124,793.52l-7.91-2C112.4,810.18,110.37,836.91,112.51,841.57Z"/><path class="cls-59" d="M159.78,808.26a48.8,48.8,0,0,1,4.51-3.28c.72-.26,3.08-.55,3.19-.33s.43.89,0,1.11-.92.15-.77.31,1.7-.71,2.06.22.67,4.12-1.15,5.09-6.31.09-6.63.2C158.26,812.52,159.78,808.26,159.78,808.26Z"/><path class="cls-62" d="M159.81,807.45s-18.51,3.7-20.15,2.76c-2.62-1.5,1-23.61,1-23.61a6.26,6.26,0,0,0-4.81-6.19c-4.32-1-8.49,2.78-8.49,2.78s-3.79,4-3.31,8.42c1.07,9.82,2.74,29.78,8.32,32.84,7.19,3.95,28-10.95,28-10.95a4.83,4.83,0,0,0,.59-2.86A7.22,7.22,0,0,0,159.81,807.45Z"/><path class="cls-56" d="M122.5,793.13l1.53.39s3.24-16.52,14.13-16.6a7.77,7.77,0,0,0-2.46-1.85C131.71,776.34,124.78,780.35,122.5,793.13Z"/><path class="cls-63" d="M138.09,928.13c0,.76-.07,1.5-.1,2.22a35.59,35.59,0,0,1-10.17.56c-.61,0-1.17-.11-1.68-.17-.09-.72-.18-1.44-.27-2.19A35.23,35.23,0,0,0,138.09,928.13Z"/><path class="cls-63" d="M137.88,933.58c0,.76,0,1.49,0,2.18a35.61,35.61,0,0,1-9.53.43l-1.46-.14h0q-.15-1.06-.3-2.19A36,36,0,0,0,137.88,933.58Z"/><g class="cls-71"><path class="cls-63" d="M112.33,925.86c-.23.76-.45,1.49-.65,2.19a35.7,35.7,0,0,1-9.57-1.07c-.61-.15-1.17-.3-1.68-.44.06-.72.12-1.44.18-2.17A35.48,35.48,0,0,0,112.33,925.86Z"/></g><g class="cls-71"><path class="cls-63" d="M110.79,931.26c-.2.75-.39,1.47-.57,2.17a37.23,37.23,0,0,1-8.24-1.09c-.72-.18-1.37-.35-1.93-.52,0-.71.09-1.43.14-2.17A37.27,37.27,0,0,0,110.79,931.26Z"/></g><path class="cls-70" d="M1049.25,481.12c-15.19-2.66-32.06-14.83-50.13-36.15-14.43-17-29.67-39.92-45.29-68a927.94,927.94,0,0,1-45.4-95.15c-18.51.55-42.08-6.68-70-21.48-22.41-11.87-47.68-28.62-75.1-49.79A1021.94,1021.94,0,0,1,679,137.31l.37-.52A1021.16,1021.16,0,0,0,763.64,210c27.4,21.14,52.64,37.87,75,49.73,28,14.81,51.49,22,69.95,21.42h.19l.08.2a926,926,0,0,0,45.45,95.27c15.59,28.07,30.81,50.92,45.21,67.92,18,21.22,34.73,33.31,49.8,36Z"/><path class="cls-70" d="M957.28,473.28C937.44,469.69,916,457,893.5,435.61c-18-17.11-36.64-39.81-55.49-67.47A784.74,784.74,0,0,1,784,275a358.64,358.64,0,0,1-109.65-30.54,397,397,0,0,1-80.31-49.31c-34.31-27-58.22-55.06-66.08-66.1l.44-.44c7.84,11,31.71,39,66,66a396.42,396.42,0,0,0,80.19,49.23,358.13,358.13,0,0,0,109.64,30.51l.15,0,.07.16a782.23,782.23,0,0,0,54,93.2c18.82,27.62,37.46,50.28,55.4,67.36,22.4,21.33,43.77,34,63.5,37.52Z"/><path class="cls-70" d="M876.06,481.13c-26.57-1-54.46-12.49-82.9-34.12-22.74-17.29-45.87-41.08-68.77-70.7A682.67,682.67,0,0,1,660.17,275c-25.48-.82-56.15-9-91.18-24.26-28.07-12.25-59-29.06-91.89-50a1075.42,1075.42,0,0,1-99.37-71.64l.33-.56a1074.79,1074.79,0,0,0,99.32,71.6c32.88,20.91,63.77,37.71,91.82,49.95,35,15.29,65.71,23.44,91.15,24.23h.16l.08.16a680.72,680.72,0,0,0,64.24,101.35c22.86,29.57,46,53.32,68.65,70.58,28.35,21.56,56.14,33,82.6,34Z"/><rect class="cls-57" x="27" y="953.6" width="1050" height="3.9"/></svg>